<svg width="800" height="400" xmlns="http://www.w3.org/2000/svg" style="background:#111"><rect x="700" y="204" width="89" height="89" fill="hsla(12, 58%, 56%, 0.34969103256388784)" transform="rotate(90 744.5 248.5)" /><rect x="645" y="164" width="24" height="24" fill="hsla(163, 69%, 40%, 0.6964158132517388)" transform="rotate(42 657.0 176.0)" /><rect x="733" y="95" width="49" height="49" fill="hsla(73, 54%, 49%, 0.24987801023631784)" transform="rotate(70 757.5 119.5)" /><rect x="738" y="186" width="18" height="18" fill="hsla(178, 57%, 33%, 0.30630207258069614)" transform="rotate(14 747.0 195.0)" /><circle cx="539" cy="147" r="43" fill="hsla(317, 58%, 67%, 0.6384801066596925)" /><circle cx="2" cy="62" r="14" fill="hsla(326, 58%, 65%, 0.6374261216500903)" /><circle cx="454" cy="374" r="15" fill="hsla(184, 59%, 70%, 0.5716601685586971)" /><circle cx="97" cy="298" r="19" fill="hsla(304, 64%, 66%, 0.24039630016185914)" /><circle cx="554" cy="303" r="69" fill="hsla(334, 89%, 46%, 0.5258579988905143)" /><circle cx="107" cy="115" r="57" fill="hsla(69, 90%, 32%, 0.5401899814085172)" /><circle cx="759" cy="296" r="72" fill="hsla(78, 63%, 48%, 0.36303808169485124)" /><rect x="452" y="80" width="54" height="54" fill="hsla(280, 82%, 52%, 0.22352337719315823)" transform="rotate(16 479.0 107.0)" /><rect x="675" y="276" width="91" height="91" fill="hsla(96, 61%, 41%, 0.5320128978086328)" transform="rotate(6 720.5 321.5)" /><rect x="180" y="132" width="76" height="76" fill="hsla(6, 97%, 42%, 0.2931160888190755)" transform="rotate(27 218.0 170.0)" /><rect x="770" y="47" width="48" height="48" fill="hsla(12, 92%, 50%, 0.405709616656015)" transform="rotate(6 794.0 71.0)" /><rect x="216" y="241" width="99" height="99" fill="hsla(95, 100%, 49%, 0.29554733469195377)" transform="rotate(83 265.5 290.5)" /><circle cx="34" cy="42" r="45" fill="hsla(354, 82%, 39%, 0.6918730854687513)" /><circle cx="36" cy="204" r="19" fill="hsla(189, 72%, 59%, 0.24819179440275224)" /><circle cx="495" cy="250" r="92" fill="hsla(352, 68%, 50%, 0.4878481457570957)" /><rect x="323" y="239" width="16" height="16" fill="hsla(246, 86%, 38%, 0.4993889786233459)" transform="rotate(61 331.0 247.0)" /><rect x="41" y="225" width="83" height="83" fill="hsla(359, 51%, 34%, 0.5748751616554515)" transform="rotate(68 82.5 266.5)" /><circle cx="37" cy="292" r="21" fill="hsla(102, 72%, 59%, 0.4633725225850397)" /><rect x="281" y="173" width="84" height="84" fill="hsla(208, 59%, 41%, 0.42007660651584944)" transform="rotate(6 323.0 215.0)" /><circle cx="200" cy="168" r="74" fill="hsla(226, 62%, 48%, 0.5909889470175596)" /><circle cx="1" cy="234" r="25" fill="hsla(155, 78%, 36%, 0.30771842147459877)" /><circle cx="129" cy="82" r="51" fill="hsla(7, 89%, 41%, 0.5432300771238754)" /><rect x="49" y="86" width="67" height="67" fill="hsla(34, 55%, 32%, 0.6518733697493233)" transform="rotate(81 82.5 119.5)" /><circle cx="701" cy="101" r="92" fill="hsla(198, 90%, 38%, 0.3820158283979598)" /><rect x="58" y="360" width="93" height="93" fill="hsla(307, 92%, 45%, 0.32634569586445367)" transform="rotate(76 104.5 406.5)" /><rect x="10" y="196" width="50" height="50" fill="hsla(265, 87%, 63%, 0.6427587026041346)" transform="rotate(51 35.0 221.0)" /><circle cx="504" cy="218" r="75" fill="hsla(18, 87%, 46%, 0.4627277144607141)" /><rect x="156" y="146" width="58" height="58" fill="hsla(9, 92%, 31%, 0.6867641213606414)" transform="rotate(26 185.0 175.0)" /><rect x="620" y="14" width="65" height="65" fill="hsla(112, 97%, 56%, 0.35486633873131546)" transform="rotate(35 652.5 46.5)" /><circle cx="335" cy="301" r="63" fill="hsla(229, 71%, 34%, 0.2486872233067965)" /><circle cx="650" cy="379" r="66" fill="hsla(87, 92%, 37%, 0.4856120700324593)" /><circle cx="140" cy="388" r="67" fill="hsla(295, 92%, 60%, 0.3228495660282332)" /><circle cx="449" cy="252" r="87" fill="hsla(144, 66%, 33%, 0.4097028685013447)" /><rect x="796" y="94" width="80" height="80" fill="hsla(50, 50%, 45%, 0.2633787594561344)" transform="rotate(35 836.0 134.0)" /><rect x="268" y="301" width="67" height="67" fill="hsla(5, 98%, 68%, 0.5444475878795534)" transform="rotate(66 301.5 334.5)" /><rect x="411" y="331" width="66" height="66" fill="hsla(303, 50%, 35%, 0.6427689981202336)" transform="rotate(8 444.0 364.0)" /><circle cx="724" cy="124" r="70" fill="hsla(69, 86%, 33%, 0.221234346502292)" /><circle cx="30" cy="63" r="95" fill="hsla(69, 72%, 32%, 0.6239230425962576)" /><circle cx="335" cy="57" r="63" fill="hsla(254, 81%, 68%, 0.20069113067397676)" /><circle cx="367" cy="164" r="70" fill="hsla(349, 94%, 55%, 0.4740363438736756)" /><rect x="723" y="208" width="84" height="84" fill="hsla(59, 86%, 61%, 0.6659346433560993)" transform="rotate(16 765.0 250.0)" /><rect x="778" y="165" width="90" height="90" fill="hsla(283, 99%, 47%, 0.552827467348016)" transform="rotate(25 823.0 210.0)" /><rect x="281" y="354" width="92" height="92" fill="hsla(7, 64%, 53%, 0.42606454699604446)" transform="rotate(18 327.0 400.0)" /><rect x="56" y="174" width="74" height="74" fill="hsla(70, 54%, 56%, 0.2013370163001602)" transform="rotate(39 93.0 211.0)" /><circle cx="721" cy="379" r="25" fill="hsla(320, 50%, 60%, 0.4834506421608094)" /><circle cx="457" cy="369" r="66" fill="hsla(292, 55%, 31%, 0.25310221507401137)" /><line x1="785" y1="127" x2="645" y2="6" stroke="hsla(59, 87%, 57%, 0.33287938992053095)" stroke-width="2" /><line x1="773" y1="50" x2="289" y2="20" stroke="hsla(52, 64%, 64%, 0.3022800875295806)" stroke-width="4" /><line x1="253" y1="39" x2="155" y2="140" stroke="hsla(3, 81%, 70%, 0.6145521729578561)" stroke-width="4" /><line x1="239" y1="33" x2="190" y2="348" stroke="hsla(129, 97%, 57%, 0.44592619053327703)" stroke-width="5" /><line x1="750" y1="206" x2="378" y2="222" stroke="hsla(99, 97%, 54%, 0.2496469694304615)" stroke-width="1" /><line x1="756" y1="177" x2="289" y2="310" stroke="hsla(300, 51%, 64%, 0.48621974668623824)" stroke-width="5" /><line x1="114" y1="4" x2="627" y2="147" stroke="hsla(332, 93%, 62%, 0.6371273726078754)" stroke-width="5" /><line x1="7" y1="243" x2="560" y2="100" stroke="hsla(243, 62%, 47%, 0.4566965202978654)" stroke-width="1" /><line x1="741" y1="362" x2="146" y2="67" stroke="hsla(302, 64%, 70%, 0.318250017007165)" stroke-width="3" /><line x1="719" y1="383" x2="47" y2="249" stroke="hsla(94, 78%, 47%, 0.593685374393216)" stroke-width="5" /><line x1="713" y1="203" x2="758" y2="327" stroke="hsla(121, 64%, 62%, 0.5838386211838908)" stroke-width="2" /><line x1="99" y1="76" x2="164" y2="212" stroke="hsla(274, 100%, 52%, 0.6277718106773025)" stroke-width="2" /><line x1="36" y1="260" x2="737" y2="92" stroke="hsla(327, 99%, 61%, 0.610372850753361)" stroke-width="5" /><line x1="705" y1="203" x2="94" y2="175" stroke="hsla(68, 74%, 47%, 0.6678676897644612)" stroke-width="5" /><line x1="619" y1="239" x2="360" y2="148" stroke="hsla(222, 65%, 43%, 0.26426704273627083)" stroke-width="2" /><line x1="42" y1="256" x2="641" y2="206" stroke="hsla(302, 86%, 38%, 0.3831510491967378)" stroke-width="3" /><line x1="717" y1="162" x2="56" y2="215" stroke="hsla(38, 64%, 38%, 0.2196759257907494)" stroke-width="1" /><line x1="330" y1="377" x2="80" y2="149" stroke="hsla(243, 60%, 50%, 0.4568815783414502)" stroke-width="5" /><line x1="443" y1="361" x2="113" y2="233" stroke="hsla(245, 78%, 68%, 0.5045036682765436)" stroke-width="5" /><line x1="747" y1="41" x2="173" y2="24" stroke="hsla(182, 59%, 58%, 0.4718706336372679)" stroke-width="4" /><text x="20" y="380" fill="#fff" font-family="monospace" font-size="12" opacity="0.5">Entropy Seed: 1771054281428</text></svg>